<?xml version="1.0" encoding="utf-8"?>
<!-- Generator: Adobe Illustrator 21.1.0, SVG Export Plug-In . SVG Version: 6.00 Build 0)  -->
<svg version="1.1" id="Layer_1" xmlns="http://www.w3.org/2000/svg" xmlns:xlink="http://www.w3.org/1999/xlink" x="0px" y="0px"
	 viewBox="0 0 40 40" style="enable-background:new 0 0 40 40;" xml:space="preserve">
<style type="text/css">
	.st0{fill:#FFFFFF;}
	.st1{fill:#009EFF;}
	.st2{fill:#383E43;}
	.st3{fill:none;stroke:#333333;stroke-miterlimit:10;}
	.st4{fill:none;stroke:#009EFF;stroke-miterlimit:10;}
	.st5{fill:none;stroke:#383E43;stroke-width:2;stroke-miterlimit:10;}
	.st6{fill:#333333;}
	.st7{fill:none;stroke:#333333;stroke-width:0.5;stroke-miterlimit:10;}
	.st8{fill:none;stroke:#383E43;stroke-miterlimit:10;}
</style>
<path class="st0" d="M20.5,6c8,0,14.5,6.5,14.5,14.5S28.5,35,20.5,35S6,28.5,6,20.5S12.5,6,20.5,6"/>
<path class="st2" d="M20.5,6.8c7.5,0,13.7,6.1,13.7,13.7S28,34.2,20.5,34.2S6.8,28,6.8,20.5S13,6.8,20.5,6.8 M20.5,6
	C12.5,6,6,12.5,6,20.5S12.5,35,20.5,35S35,28.5,35,20.5S28.5,6,20.5,6L20.5,6z"/>
</svg>
